<?xml version="1.0" encoding="UTF-8" standalone="no"?>
<!DOCTYPE svg PUBLIC "-//W3C//DTD SVG 20010904//EN"
              "http://www.w3.org/TR/2001/REC-SVG-20010904/DTD/svg10.dtd">

<svg xmlns="http://www.w3.org/2000/svg"
     width="100px" height="100px"
     viewBox="0 0 100 100">
  <path id="Path"
        fill="#333"
        d="M 41.12,27.00
           C 41.12,27.00 32.39,27.00 32.39,27.00
             30.92,27.00 30.47,27.61 30.47,29.11
             30.47,30.58 30.95,31.16 32.39,31.16
             32.39,31.16 38.53,31.16 38.53,31.16
             38.53,31.16 38.53,44.78 38.53,44.78
             36.34,42.08 33.47,40.00 28.92,40.00
             27.06,40.00 25.33,40.33 23.70,40.97
             18.94,42.86 15.84,47.34 15.84,54.05
             15.84,56.20 16.17,58.16 16.83,59.89
             18.62,64.58 22.59,68.02 28.92,68.02
             33.55,67.69 36.69,65.41 38.84,62.55
             38.84,62.55 38.84,64.97 38.84,64.97
             38.84,66.42 39.25,67.02 40.70,67.02
             40.70,67.02 45.53,67.02 45.53,67.02
             47.00,67.02 47.45,66.48 47.45,64.97
             47.45,63.45 47.00,62.92 45.53,62.92
             45.53,62.92 43.05,62.92 43.05,62.92
             43.05,62.92 43.05,29.11 43.05,29.11
             43.05,27.61 42.59,27.00 41.12,27.00 Z
           M 38.53,53.88
           C 38.53,55.36 38.28,56.67 37.81,57.81
             36.50,61.27 33.66,63.48 29.23,63.48
             23.67,63.48 20.61,59.66 20.61,54.05
             20.61,52.62 20.81,51.34 21.20,50.19
             22.33,46.88 24.84,44.53 29.23,44.53
             34.98,44.53 38.53,48.20 38.53,54.05
             38.53,54.05 38.53,53.88 38.53,53.88 Z
           M 78.50,50.72
           C 80.06,50.72 80.73,50.23 80.73,48.73
             80.73,48.73 80.73,39.98 80.73,39.98
             80.73,38.47 80.12,38.00 78.50,38.00
             76.89,38.00 76.20,38.47 76.20,39.98
             76.20,39.98 76.20,41.80 76.20,41.80
             74.31,39.59 71.33,38.00 67.41,38.00
             65.25,38.00 63.28,38.38 61.48,39.12
             56.50,41.19 52.84,45.81 52.84,52.98
             52.84,55.16 53.17,57.17 53.86,59.03
             55.80,64.30 60.41,68.02 67.41,68.02
             72.44,68.02 76.89,66.30 79.92,64.11
             80.98,63.34 81.16,62.03 80.42,60.80
             79.72,59.55 78.81,59.03 77.58,60.02
             75.02,62.06 71.62,63.48 67.41,63.48
             65.95,63.48 64.62,63.22 63.41,62.72
             59.98,61.28 57.61,57.89 57.61,52.98
             57.61,51.48 57.88,50.09 58.39,48.81
             59.83,45.25 62.89,42.47 67.72,42.47
             72.30,42.47 76.20,44.31 76.20,48.94
             76.20,50.52 76.89,50.98 78.50,50.98
             78.50,50.98 78.50,50.72 78.50,50.72 Z" />
</svg>
