<?xml version="1.0" standalone="no"?>
<!DOCTYPE svg PUBLIC "-//W3C//DTD SVG 20010904//EN"
 "http://www.w3.org/TR/2001/REC-SVG-20010904/DTD/svg10.dtd">
<svg version="1.0" xmlns="http://www.w3.org/2000/svg"
 width="303.000000pt" height="303.000000pt" viewBox="0 0 303.000000 303.000000"
 preserveAspectRatio="xMidYMid meet">
<metadata>
Created by potrace 1.11, written by Peter Selinger 2001-2013
</metadata>
<g transform="translate(0.000000,303.000000) scale(0.100000,-0.100000)"
fill="#000000" stroke="none">
<path d="M1280 3010 c-632 -104 -1128 -581 -1249 -1200 -6 -30 -13 -68 -17
-85 -9 -45 -12 -356 -3 -390 4 -16 10 -52 14 -79 12 -95 61 -258 110 -361 13
-28 39 -85 59 -128 39 -85 48 -99 139 -202 278 -312 548 -471 922 -542 105
-19 357 -24 465 -7 329 49 616 187 840 405 138 134 219 240 289 379 87 175
139 325 157 456 3 27 10 72 14 99 12 76 4 329 -14 427 -22 121 -86 311 -141
416 -40 79 -127 218 -144 232 -3 3 -19 22 -34 43 -101 135 -311 303 -497 397
-116 59 -303 120 -415 136 -27 3 -59 9 -70 11 -58 13 -327 9 -425 -7z"/>
</g>
</svg>
