<?xml version="1.0" encoding="UTF-8" standalone="no"?>
<svg
   xmlns:sketch="http://www.bohemiancoding.com/sketch/ns"
   xmlns:dc="http://purl.org/dc/elements/1.1/"
   xmlns:cc="http://creativecommons.org/ns#"
   xmlns:rdf="http://www.w3.org/1999/02/22-rdf-syntax-ns#"
   xmlns:svg="http://www.w3.org/2000/svg"
   xmlns="http://www.w3.org/2000/svg"
   xmlns:sodipodi="http://sodipodi.sourceforge.net/DTD/sodipodi-0.dtd"
   xmlns:inkscape="http://www.inkscape.org/namespaces/inkscape"
   width="302.84726"
   height="302.84726"
   viewBox="0 0 302.8473 302.8473"
   version="1.1"
   id="svg2985"
   inkscape:version="0.48.4 r9943 custom"
   sodipodi:docname="logo_small.svg">
  <sodipodi:namedview
     pagecolor="#ffffff"
     bordercolor="#666666"
     borderopacity="1"
     objecttolerance="10"
     gridtolerance="10"
     guidetolerance="10"
     inkscape:pageopacity="0"
     inkscape:pageshadow="2"
     inkscape:window-width="1208"
     inkscape:window-height="681"
     id="namedview3004"
     showgrid="false"
     fit-margin-top="0"
     fit-margin-left="0"
     fit-margin-right="0"
     fit-margin-bottom="0"
     inkscape:zoom="2.3754762"
     inkscape:cx="52.235042"
     inkscape:cy="230.03273"
     inkscape:window-x="0"
     inkscape:window-y="23"
     inkscape:window-maximized="0"
     inkscape:current-layer="Logo"
     showguides="true"
     inkscape:guide-bbox="true">
    <sodipodi:guide
       orientation="0,1"
       position="322.88263,5.4725824"
       id="guide3915" />
  </sodipodi:namedview>
  <metadata
     id="metadata3014">
    <rdf:RDF>
      <cc:Work
         rdf:about="">
        <dc:format>image/svg+xml</dc:format>
        <dc:type
           rdf:resource="http://purl.org/dc/dcmitype/StillImage" />
        <dc:title>logo</dc:title>
      </cc:Work>
    </rdf:RDF>
  </metadata>
  <title
     id="title2987">logo</title>
  <description
     id="description2989">Created with Sketch (http://www.bohemiancoding.com/sketch)</description>
  <defs
     id="defs2991" />
  <g
     id="Page-1"
     sketch:type="MSPage"
     transform="matrix(0.68500337,0,0,0.68500337,119.28127,160.38148)"
     style="fill:none;stroke:none">
    <g
       id="Logo"
       sketch:type="MSLayerGroup"
       transform="translate(-48,0)">
      <path
         style="fill:#98c908"
         d="m 315.97828,-13.077055 c 0,122.085495 -98.96984,221.055335 -221.055335,221.055335 -122.08549,0 -221.055335,-98.96984 -221.055335,-221.055335 0,-122.085495 98.969845,-221.055335 221.055335,-221.055335 122.085495,0 221.055335,98.96984 221.055335,221.055335 z"
         id="green"
         inkscape:connector-curvature="0" />
      <g
         transform="matrix(0,2.4027754,-2.4027754,0,-404.85434,-261.70938)"
         style="font-size:228px;font-weight:normal;fill:#ffffff;font-family:League Gothic"
         id="D">
        <path
           d="m 103.02,-124 0,-167.58 19.38,0 c 22.79998,0 35.11201,4.56001 41.724,17.328 6.384,12.76799 7.296,33.74403 7.296,66.576 0,32.83197 -0.912,53.58001 -7.296,66.348 C 157.51201,-128.56001 145.19998,-124 122.4,-124 l -19.38,0 m 24.624,-24.624 c 8.43599,0 13.224,-0.91201 15.732,-9.12 1.14,-3.876 2.052,-9.80401 2.28,-17.784 0.228,-7.97999 0.228,-18.69601 0.228,-32.376 0,-13.67999 0,-24.39601 -0.228,-32.376 -0.228,-7.75199 -1.14,-13.68 -2.28,-17.784 -2.508,-7.97999 -7.29601,-8.892 -15.732,-8.892 l 0,118.332"
           id="path3010"
           inkscape:connector-curvature="0" />
      </g>
      <g
         transform="matrix(0,-2.4027754,2.4027754,0,-404.85434,-244.99981)"
         style="font-size:228px;font-weight:normal;fill:#ffffff;font-family:League Gothic"
         id="C">
        <path
           d="m -37.712002,234.24401 0,23.028 c -0.227999,6.84 -1.596002,12.99601 -4.104,18.24 -2.051997,4.56 -5.244004,8.89201 -9.804,12.312 -4.559995,3.648 -10.716008,5.7 -18.924,5.7 -8.207991,0 -14.592004,-2.052 -19.152,-5.7 -4.559995,-3.41999 -7.524002,-7.752 -9.576,-12.312 -2.507998,-5.24399 -3.875998,-11.4 -4.103998,-18.24 l 0,-98.724 c 0.228,-6.61199 1.596,-12.768 4.103998,-18.012 2.051998,-4.55999 5.016005,-9.12 9.576,-12.54 4.559996,-3.41999 10.944009,-5.7 19.152,-5.7 8.207992,0 14.364005,2.28001 18.924,5.7 4.559996,3.42 7.752003,7.98001 9.804,12.54 2.507998,5.244 3.876001,11.40001 4.104,18.012 l 0,23.028 -23.028,0 0,-23.028 c 0,-4.55999 -1.140002,-7.752 -3.648,-10.488 -1.139998,-1.14 -3.192002,-1.824 -5.7,-1.824 -4.331995,0 -6.384001,3.19201 -7.524,6.156 -0.683999,1.824 -0.912,3.876 -1.14,6.156 l 0,98.724 c 0.228,4.788 1.596003,7.98 3.876,10.488 1.139999,1.14 2.736003,1.824 4.788,1.824 5.243995,0 7.296002,-2.736 8.436,-6.156 0.684,-1.596 0.912,-3.648 0.912,-6.156 l 0,-23.028 23.028,0"
           id="path3013"
           inkscape:connector-curvature="0" />
      </g>
    </g>
  </g>
</svg>
